<?xml version="1.0" encoding="UTF-8" standalone="no"?>
<!-- Created with Inkscape (http://www.inkscape.org/) -->

<svg
   width="512"
   height="512"
   viewBox="0 0 512 512"
   version="1.1"
   id="SVGRoot"
   sodipodi:docname="ostomate-gray.svg"
   inkscape:export-filename="toilet-japanese-gray.svg"
   inkscape:export-xdpi="96"
   inkscape:export-ydpi="96"
   xml:space="preserve"
   inkscape:version="1.2.2 (732a01da63, 2022-12-09)"
   xmlns:inkscape="http://www.inkscape.org/namespaces/inkscape"
   xmlns:sodipodi="http://sodipodi.sourceforge.net/DTD/sodipodi-0.dtd"
   xmlns="http://www.w3.org/2000/svg"
   xmlns:svg="http://www.w3.org/2000/svg"><sodipodi:namedview
     id="namedview35037"
     pagecolor="#505050"
     bordercolor="#eeeeee"
     borderopacity="1"
     inkscape:showpageshadow="0"
     inkscape:pageopacity="0"
     inkscape:pagecheckerboard="0"
     inkscape:deskcolor="#505050"
     inkscape:document-units="px"
     showgrid="true"
     inkscape:zoom="1.0444209"
     inkscape:cx="176.65291"
     inkscape:cy="240.32456"
     inkscape:window-width="1920"
     inkscape:window-height="1009"
     inkscape:window-x="1912"
     inkscape:window-y="-8"
     inkscape:window-maximized="1"
     inkscape:current-layer="layer1"><inkscape:grid
       type="xygrid"
       id="grid35523" /></sodipodi:namedview><defs
     id="defs35032"><clipPath
       clipPathUnits="userSpaceOnUse"
       id="clipPath112420"><path
         d="M 0,800 H 800 V 0 H 0 Z"
         id="path112418" /></clipPath></defs><g
     id="g112414"
     transform="matrix(1.1635085,0,0,-0.89824622,-209.40349,615.29832)"
     style="fill:#f6aa00;fill-opacity:1"><g
       id="g112416"
       clip-path="url(#clipPath112420)"
       style="fill:#f6aa00;fill-opacity:1"><g
         id="g112422"
         transform="translate(351.9385,115)"
         style="fill:#f6aa00;fill-opacity:1"><path
           d="m 0,0 c -7.725,0 -13.987,6.263 -13.987,13.987 v 44.982 c 0,19.33 -11.494,36.71 -29.283,44.275 -36.074,15.345 -65.819,37.42 -86.018,63.841 -15.305,20.018 -24.971,42.769 -27.954,65.795 -0.516,3.989 0.709,8.008 3.365,11.03 2.656,3.022 6.484,4.754 10.507,4.754 h 329.265 c 7.724,0 13.987,-6.263 13.987,-13.987 V 13.987 C 199.882,6.263 193.619,0 185.895,0 Z"
           style="fill:#f6aa00;fill-opacity:1;fill-rule:nonzero;stroke:none"
           id="path112424" /></g><g
         id="g112426"
         transform="translate(530.2139,387.1484)"
         style="fill:#f6aa00;fill-opacity:1"><path
           d="m 0,0 c -0.082,-0.002 -323.896,-0.002 -323.896,-0.002 -14.525,0 -26.342,11.816 -26.342,26.342 0,14.525 11.817,26.342 26.342,26.342 h 306.401 l 56.853,186.462 0.433,0.883 c 4.455,9.111 13.525,14.771 23.67,14.771 4.039,0 7.932,-0.903 11.57,-2.684 6.319,-3.089 11.058,-8.458 13.34,-15.115 2.165,-6.309 1.878,-13.063 -0.796,-19.136 L 24.462,15.612 24.048,14.765 C 19.591,5.654 10.521,-0.006 0.378,-0.006 0.25,-0.006 0.125,-0.004 0,0"
           style="fill:#f6aa00;fill-opacity:1;fill-rule:nonzero;stroke:none"
           id="path112428" /></g><g
         id="g112430"
         transform="translate(237.3306,608.3677)"
         style="fill:#f6aa00;fill-opacity:1"><path
           d="m 0,0 c -0.662,0 -1.324,0.075 -1.976,0.205 -0.644,0.13 -1.278,0.317 -1.894,0.578 -0.606,0.252 -1.193,0.56 -1.743,0.924 -0.551,0.373 -1.073,0.792 -1.539,1.258 -1.874,1.884 -2.956,4.485 -2.956,7.153 0,0.652 0.066,1.323 0.196,1.967 0.131,0.653 0.327,1.287 0.578,1.893 0.252,0.615 0.569,1.203 0.933,1.744 0.363,0.559 0.783,1.072 1.249,1.538 0.466,0.467 0.988,0.895 1.539,1.259 0.55,0.364 1.137,0.681 1.743,0.933 0.616,0.252 1.25,0.447 1.894,0.578 1.305,0.261 2.648,0.261 3.953,0 0.644,-0.131 1.278,-0.326 1.894,-0.578 0.606,-0.252 1.193,-0.569 1.743,-0.933 0.551,-0.364 1.072,-0.792 1.538,-1.259 0.467,-0.466 0.887,-0.979 1.25,-1.538 0.364,-0.541 0.681,-1.129 0.933,-1.744 0.251,-0.606 0.447,-1.24 0.578,-1.893 0.13,-0.644 0.196,-1.315 0.196,-1.967 C 10.109,7.45 9.027,4.849 7.152,2.965 6.686,2.499 6.165,2.08 5.614,1.707 5.064,1.343 4.477,1.035 3.871,0.783 3.255,0.522 2.621,0.335 1.977,0.205 1.324,0.075 0.662,0 0,0"
           style="fill:#f6aa00;fill-opacity:1;fill-rule:nonzero;stroke:none"
           id="path112432" /></g><g
         id="g112434"
         transform="translate(283.6196,674.8916)"
         style="fill:#f6aa00;fill-opacity:1"><path
           d="m 0,0 c 0,5.586 4.523,10.108 10.108,10.108 5.577,0.01 10.109,-4.522 10.109,-10.099 0,-5.586 -4.523,-10.117 -10.109,-10.117 C 4.523,-10.108 0,-5.585 0,0 m 42.849,-23.648 h -0.01 c -3.944,3.944 -3.954,10.351 -0.009,14.295 3.953,3.954 10.35,3.963 14.304,0.009 3.945,-3.944 3.954,-10.341 0.009,-14.295 -1.976,-1.976 -4.569,-2.965 -7.152,-2.965 -2.583,0 -5.175,0.989 -7.142,2.956 m -79.766,-0.019 c -3.944,3.945 -3.944,10.351 0,14.295 3.954,3.945 10.351,3.945 14.295,0 3.954,-3.944 3.954,-10.35 0,-14.295 h 0.009 c -1.977,-1.977 -4.569,-2.965 -7.152,-2.965 -2.592,0 -5.175,0.988 -7.152,2.965"
           style="fill:#f6aa00;fill-opacity:1;fill-rule:nonzero;stroke:none"
           id="path112436" /></g><g
         id="g112438"
         transform="translate(350.1533,608.3677)"
         style="fill:#f6aa00;fill-opacity:1"><path
           d="m 0,0 c -0.653,0 -1.324,0.075 -1.967,0.205 -0.654,0.13 -1.288,0.317 -1.894,0.578 -0.615,0.252 -1.202,0.56 -1.743,0.924 -0.56,0.373 -1.073,0.792 -1.539,1.258 -0.466,0.467 -0.886,0.979 -1.259,1.539 -0.364,0.55 -0.671,1.137 -0.932,1.744 -0.252,0.606 -0.448,1.249 -0.569,1.893 -0.14,0.652 -0.205,1.315 -0.205,1.967 0,0.662 0.065,1.324 0.205,1.977 0.121,0.653 0.317,1.287 0.569,1.893 0.261,0.615 0.568,1.203 0.932,1.744 0.373,0.559 0.793,1.072 1.259,1.538 0.466,0.467 0.979,0.895 1.539,1.259 0.541,0.364 1.128,0.681 1.743,0.933 0.606,0.252 1.24,0.447 1.894,0.578 1.295,0.261 2.648,0.261 3.944,0 C 2.62,19.899 3.264,19.704 3.87,19.452 4.485,19.2 5.073,18.883 5.614,18.519 6.173,18.155 6.686,17.727 7.152,17.26 7.618,16.794 8.038,16.281 8.411,15.722 8.775,15.181 9.082,14.593 9.344,13.978 9.595,13.372 9.782,12.738 9.912,12.085 10.043,11.432 10.118,10.77 10.118,10.108 10.118,9.456 10.043,8.793 9.912,8.141 9.782,7.497 9.595,6.854 9.344,6.248 9.082,5.641 8.775,5.054 8.411,4.504 8.038,3.944 7.618,3.432 7.152,2.965 6.686,2.499 6.173,2.08 5.614,1.707 5.073,1.343 4.485,1.035 3.87,0.783 3.264,0.522 2.62,0.335 1.977,0.205 1.324,0.075 0.662,0 0,0"
           style="fill:#f6aa00;fill-opacity:1;fill-rule:nonzero;stroke:none"
           id="path112440" /></g><g
         id="g112442"
         transform="translate(396.519,674.8916)"
         style="fill:#f6aa00;fill-opacity:1"><path
           d="M 0,0 C 0,5.586 4.523,10.108 10.109,10.108 15.694,10.118 20.216,5.586 20.216,0.009 20.226,-5.577 15.694,-10.108 10.118,-10.108 4.533,-10.108 0,-5.585 0,0 m 42.848,-23.648 c -3.954,3.944 -3.954,10.351 -0.009,14.295 3.944,3.954 10.351,3.954 14.295,0.009 3.953,-3.944 3.953,-10.341 0.009,-14.295 -1.968,-1.976 -4.56,-2.965 -7.151,-2.965 -2.584,0 -5.166,0.989 -7.144,2.956 m -79.756,-0.019 c -3.945,3.945 -3.945,10.351 0,14.295 3.945,3.945 10.351,3.945 14.295,0 3.954,-3.944 3.954,-10.35 0,-14.295 -1.976,-1.977 -4.559,-2.965 -7.152,-2.965 -2.583,0 -5.166,0.988 -7.143,2.965"
           style="fill:#f6aa00;fill-opacity:1;fill-rule:nonzero;stroke:none"
           id="path112444" /></g><g
         id="g112446"
         transform="translate(463.0625,608.3677)"
         style="fill:#f6aa00;fill-opacity:1"><path
           d="m 0,0 c -0.662,0 -1.324,0.065 -1.978,0.205 -0.643,0.13 -1.277,0.317 -1.892,0.569 -0.607,0.261 -1.194,0.569 -1.744,0.933 -0.55,0.373 -1.073,0.792 -1.538,1.258 -0.467,0.467 -0.887,0.979 -1.25,1.539 -0.365,0.541 -0.681,1.128 -0.932,1.744 -0.253,0.606 -0.448,1.249 -0.579,1.893 -0.131,0.652 -0.195,1.315 -0.195,1.977 0,0.652 0.064,1.323 0.195,1.967 0.131,0.653 0.326,1.287 0.579,1.893 0.251,0.615 0.567,1.203 0.932,1.744 0.363,0.559 0.783,1.072 1.25,1.538 0.465,0.467 0.988,0.895 1.538,1.259 0.55,0.364 1.137,0.681 1.744,0.933 0.615,0.252 1.249,0.447 1.892,0.569 1.306,0.27 2.649,0.27 3.955,0 0.642,-0.122 1.277,-0.317 1.892,-0.569 0.607,-0.252 1.193,-0.569 1.743,-0.933 0.551,-0.373 1.074,-0.792 1.531,-1.259 0.466,-0.466 0.895,-0.979 1.258,-1.538 0.364,-0.541 0.681,-1.129 0.933,-1.744 0.252,-0.606 0.447,-1.24 0.578,-1.893 0.13,-0.644 0.195,-1.315 0.195,-1.967 0,-0.662 -0.065,-1.325 -0.195,-1.977 C 9.781,7.497 9.586,6.854 9.334,6.248 9.082,5.632 8.765,5.045 8.401,4.504 8.038,3.944 7.609,3.432 7.143,2.965 6.686,2.499 6.163,2.08 5.612,1.707 5.062,1.343 4.476,1.035 3.869,0.774 3.254,0.522 2.619,0.335 1.977,0.205 1.323,0.065 0.662,0 0,0"
           style="fill:#f6aa00;fill-opacity:1;fill-rule:nonzero;stroke:none"
           id="path112448" /></g><g
         id="g112450"
         transform="translate(340.0498,577.502)"
         style="fill:#f6aa00;fill-opacity:1"><path
           d="m 0,0 c 0,5.586 4.523,10.118 10.108,10.118 5.577,0 10.108,-4.532 10.108,-10.118 0,-5.576 -4.531,-10.108 -10.108,-10.108 C 4.523,-10.108 0,-5.576 0,0 m 0,-41.421 c 0,5.585 4.523,10.108 10.108,10.108 5.577,0 10.108,-4.523 10.108,-10.108 0,-5.586 -4.531,-10.118 -10.108,-10.118 C 4.523,-51.539 0,-47.007 0,-41.421 m 0,-41.431 c 0,5.586 4.523,10.108 10.108,10.108 5.577,0 10.108,-4.522 10.108,-10.108 0,-5.586 -4.531,-10.108 -10.108,-10.108 C 4.523,-92.96 0,-88.438 0,-82.852"
           style="fill:#f6aa00;fill-opacity:1;fill-rule:nonzero;stroke:none"
           id="path112452" /></g></g></g></svg>
